<svg width="517" height="372" viewBox="0 0 517 372" fill="none" xmlns="http://www.w3.org/2000/svg">
<path d="M0 301.456L14.6922 262.517H21.5412L36.0676 301.456H31.2623L27.9483 292.729H8.11936L4.80533 301.456H0ZM9.61067 288.587H26.5122L18.3376 266.935H17.8405L9.61067 288.587Z" fill="#1F1E1C"/>
<path d="M50.2247 302.561C42.2158 302.561 37.5762 298.639 37.5762 292.011H41.9949C42.0501 295.988 45.1432 298.695 50.3904 298.695C54.5882 298.695 57.2946 296.927 57.2946 294C57.2946 290.354 53.4835 290.078 49.2858 289.526C44.0938 288.918 38.0733 287.537 38.0733 281.186C38.0733 275.773 42.6025 272.459 49.2858 272.459C56.2452 272.459 60.9953 276.159 60.9953 281.904H56.5214C56.4661 278.479 53.5387 276.325 49.2305 276.325C45.1984 276.325 42.4368 278.148 42.4368 281.02C42.4368 284.5 46.1927 284.776 50.3352 285.273C55.5824 285.936 61.6029 287.261 61.6029 293.945C61.6029 299.413 57.3499 302.561 50.2247 302.561Z" fill="#1F1E1C"/>
<path d="M78.1134 302.561C70.1045 302.561 65.4649 298.639 65.4649 292.011H69.8836C69.9389 295.988 73.0319 298.695 78.2791 298.695C82.4769 298.695 85.1834 296.927 85.1834 294C85.1834 290.354 81.3722 290.078 77.1745 289.526C71.9825 288.918 65.962 287.537 65.962 281.186C65.962 275.773 70.4912 272.459 77.1745 272.459C84.1339 272.459 88.884 276.159 88.884 281.904H84.4101C84.3549 278.479 81.4275 276.325 77.1192 276.325C73.0872 276.325 70.3255 278.148 70.3255 281.02C70.3255 284.5 74.0814 284.776 78.2239 285.273C83.4711 285.936 89.4916 287.261 89.4916 293.945C89.4916 299.413 85.2386 302.561 78.1134 302.561Z" fill="#1F1E1C"/>
<path d="M108.156 302.561C99.4293 302.561 93.1327 296.099 93.1327 287.151C93.1327 278.645 99.3189 272.459 107.935 272.459C116.441 272.459 122.572 278.645 122.572 287.206C122.572 287.758 122.572 288.421 122.517 289.029H97.8276C98.4904 294.663 102.578 298.419 108.267 298.419C112.409 298.419 116.055 296.32 117.822 293.006L121.633 294.939C119.369 299.689 114.342 302.561 108.156 302.561ZM97.8828 284.997H117.767C116.938 279.97 113.017 276.601 107.714 276.601C102.578 276.601 98.6561 279.97 97.8828 284.997Z" fill="#1F1E1C"/>
<path d="M138.853 302.561C130.844 302.561 126.205 298.639 126.205 292.011H130.623C130.679 295.988 133.772 298.695 139.019 298.695C143.217 298.695 145.923 296.927 145.923 294C145.923 290.354 142.112 290.078 137.914 289.526C132.722 288.918 126.702 287.537 126.702 281.186C126.702 275.773 131.231 272.459 137.914 272.459C144.874 272.459 149.624 276.159 149.624 281.904H145.15C145.095 278.479 142.167 276.325 137.859 276.325C133.827 276.325 131.065 278.148 131.065 281.02C131.065 284.5 134.821 284.776 138.964 285.273C144.211 285.936 150.231 287.261 150.231 293.945C150.231 299.413 145.978 302.561 138.853 302.561Z" fill="#1F1E1C"/>
<path d="M166.742 302.561C158.733 302.561 154.093 298.639 154.093 292.011H158.512C158.567 295.988 161.66 298.695 166.908 298.695C171.105 298.695 173.812 296.927 173.812 294C173.812 290.354 170.001 290.078 165.803 289.526C160.611 288.918 154.591 287.537 154.591 281.186C154.591 275.773 159.12 272.459 165.803 272.459C172.762 272.459 177.513 276.159 177.513 281.904H173.039C172.983 278.479 170.056 276.325 165.748 276.325C161.716 276.325 158.954 278.148 158.954 281.02C158.954 284.5 162.71 284.776 166.852 285.273C172.1 285.936 178.12 287.261 178.12 293.945C178.12 299.413 173.867 302.561 166.742 302.561Z" fill="#1F1E1C"/>
<path d="M196.674 302.561C187.892 302.561 181.706 296.32 181.706 287.482C181.706 278.7 187.892 272.459 196.674 272.459C205.401 272.459 211.643 278.7 211.643 287.482C211.643 296.32 205.401 302.561 196.674 302.561ZM196.674 298.419C202.695 298.419 207.058 293.834 207.058 287.482C207.058 281.186 202.695 276.601 196.674 276.601C190.599 276.601 186.29 281.186 186.29 287.482C186.29 293.834 190.599 298.419 196.674 298.419Z" fill="#1F1E1C"/>
<path d="M216.426 301.456V273.563H220.9V277.319H221.397C222.667 274.778 225.761 273.011 228.854 273.011C230.124 273.011 231.45 273.287 232.278 273.729V277.982C230.842 277.374 229.185 277.154 228.136 277.154C223.938 277.154 221.01 280.909 221.01 286.433V301.456H216.426Z" fill="#1F1E1C"/>
<path d="M238.716 268.261C236.783 268.261 235.402 266.88 235.402 264.947C235.402 263.069 236.783 261.743 238.716 261.743C240.649 261.743 241.975 263.069 241.975 264.947C241.975 266.88 240.649 268.261 238.716 268.261ZM236.396 301.456V273.563H240.98V301.456H236.396Z" fill="#1F1E1C"/>
<path d="M255.503 302.34C249.483 302.34 245.506 299.192 245.506 294.386C245.506 289.471 249.703 285.825 257.989 284.886L265.721 283.947V282.843C265.721 279.087 263.015 276.656 258.43 276.656C254.233 276.656 251.471 278.7 251.526 282.18H246.887C246.887 276.27 251.471 272.514 258.486 272.514C265.721 272.514 270.306 276.601 270.306 282.953V301.456H265.721V297.369H265.224C263.236 300.573 259.977 302.34 255.503 302.34ZM256.166 298.529C261.855 298.529 265.721 295.049 265.721 290.354V287.869L257.989 288.753C252.299 289.471 250.09 291.68 250.09 294.276C250.09 296.927 252.41 298.529 256.166 298.529Z" fill="#1F1E1C"/>
<path d="M301.222 302.561C292.495 302.561 286.198 296.099 286.198 287.151C286.198 278.645 292.384 272.459 301.001 272.459C309.507 272.459 315.638 278.645 315.638 287.206C315.638 287.758 315.638 288.421 315.583 289.029H290.893C291.556 294.663 295.643 298.419 301.332 298.419C305.475 298.419 309.12 296.32 310.888 293.006L314.699 294.939C312.434 299.689 307.408 302.561 301.222 302.561ZM290.948 284.997H310.833C310.004 279.97 306.082 276.601 300.78 276.601C295.643 276.601 291.722 279.97 290.948 284.997Z" fill="#1F1E1C"/>
<path d="M351.693 302.837C339.486 302.837 330.704 294.055 330.704 281.959C330.704 269.863 339.486 261.136 351.693 261.136C359.867 261.136 367.268 265.886 369.423 272.403L364.838 273.95C363.181 269.089 357.713 265.554 351.693 265.554C342.358 265.554 335.73 272.348 335.73 281.959C335.73 291.459 342.413 298.419 351.693 298.419C360.088 298.419 366.716 292.398 366.937 284.555L347.605 284.5V280.026H372.019C372.847 293.282 364.341 302.837 351.693 302.837Z" fill="#1F1E1C"/>
<path d="M390.498 302.561C381.771 302.561 375.474 296.099 375.474 287.151C375.474 278.645 381.66 272.459 390.277 272.459C398.783 272.459 404.914 278.645 404.914 287.206C404.914 287.758 404.914 288.421 404.858 289.029H380.169C380.832 294.663 384.919 298.419 390.608 298.419C394.751 298.419 398.396 296.32 400.164 293.006L403.975 294.939C401.71 299.689 396.684 302.561 390.498 302.561ZM380.224 284.997H400.108C399.28 279.97 395.358 276.601 390.056 276.601C384.919 276.601 380.997 279.97 380.224 284.997Z" fill="#1F1E1C"/>
<path d="M421.195 302.561C413.186 302.561 408.546 298.639 408.546 292.011H412.965C413.02 295.988 416.113 298.695 421.36 298.695C425.558 298.695 428.265 296.927 428.265 294C428.265 290.354 424.454 290.078 420.256 289.526C415.064 288.918 409.043 287.537 409.043 281.186C409.043 275.773 413.572 272.459 420.256 272.459C427.215 272.459 431.965 276.159 431.965 281.904H427.491C427.436 278.479 424.509 276.325 420.201 276.325C416.168 276.325 413.407 278.148 413.407 281.02C413.407 284.5 417.163 284.776 421.305 285.273C426.552 285.936 432.573 287.261 432.573 293.945C432.573 299.413 428.32 302.561 421.195 302.561Z" fill="#1F1E1C"/>
<path d="M447.758 302.506C443.063 302.506 440.08 299.192 440.08 294.276V277.209H435.551V273.563H440.08L441.13 264.56H444.72L444.665 273.563H451.845V277.209H444.665V294.11C444.665 296.761 446.322 298.639 448.973 298.639C449.801 298.639 451.238 298.419 452.287 298.087V301.788C450.961 302.23 449.139 302.506 447.758 302.506Z" fill="#1F1E1C"/>
<path d="M471.377 268.703C467.29 268.703 466.351 265.554 463.644 265.554C462.264 265.554 461.048 266.383 460.386 267.543L457.955 265.72C459.005 263.511 461.38 261.964 464.031 261.964C467.842 261.964 469.002 265.168 471.764 265.168C473.255 265.168 474.525 264.284 475.133 263.069L477.619 264.892C476.624 267.156 474.305 268.703 471.377 268.703ZM464.804 302.34C458.784 302.34 454.807 299.192 454.807 294.386C454.807 289.471 459.005 285.825 467.29 284.886L475.023 283.947V282.843C475.023 279.087 472.316 276.656 467.732 276.656C463.534 276.656 460.772 278.7 460.828 282.18H456.188C456.188 276.27 460.772 272.514 467.787 272.514C475.023 272.514 479.607 276.601 479.607 282.953V301.456H475.023V297.369H474.525C472.537 300.573 469.278 302.34 464.804 302.34ZM465.467 298.529C471.156 298.529 475.023 295.049 475.023 290.354V287.869L467.29 288.753C461.601 289.471 459.391 291.68 459.391 294.276C459.391 296.927 461.711 298.529 465.467 298.529Z" fill="#1F1E1C"/>
<path d="M498.814 302.561C490.031 302.561 483.845 296.32 483.845 287.482C483.845 278.7 490.031 272.459 498.814 272.459C507.541 272.459 513.782 278.7 513.782 287.482C513.782 296.32 507.541 302.561 498.814 302.561ZM498.814 298.419C504.834 298.419 509.198 293.834 509.198 287.482C509.198 281.186 504.834 276.601 498.814 276.601C492.738 276.601 488.43 281.186 488.43 287.482C488.43 293.834 492.738 298.419 498.814 298.419Z" fill="#1F1E1C"/>
<path d="M15.6311 359.126C7.45655 359.126 1.15991 352.774 1.15991 344.047C1.15991 335.32 7.40132 329.023 15.5759 329.023C20.0498 329.023 23.7505 330.901 25.7942 334.271H26.3465V317.424H30.9309V358.021H26.3465V353.713H25.7942C23.7505 357.137 20.1603 359.126 15.6311 359.126ZM16.1283 354.983C22.0935 354.983 26.457 350.178 26.457 344.047C26.457 337.916 22.0935 333.166 16.1283 333.166C10.1078 333.166 5.74431 337.916 5.74431 344.047C5.74431 350.288 10.163 354.983 16.1283 354.983Z" fill="#1F1E1C"/>
<path d="M50.7607 359.126C42.0337 359.126 35.7371 352.663 35.7371 343.715C35.7371 335.209 41.9233 329.023 50.5397 329.023C59.0457 329.023 65.1767 335.209 65.1767 343.771C65.1767 344.323 65.1767 344.986 65.1214 345.593H40.432C41.0948 351.227 45.1821 354.983 50.8711 354.983C55.0137 354.983 58.6591 352.884 60.4266 349.57L64.2377 351.503C61.9731 356.254 56.9468 359.126 50.7607 359.126ZM40.4872 341.561H60.3713C59.5428 336.535 55.6212 333.166 50.3188 333.166C45.1821 333.166 41.2605 336.535 40.4872 341.561Z" fill="#1F1E1C"/>
<path d="M82.6176 358.021V319.081H89.8532L108.301 351.393H108.798V319.081H113.825V358.021H106.644L88.1962 325.709H87.6439V358.021H82.6176Z" fill="#1F1E1C"/>
<path d="M134.697 359.126C125.97 359.126 119.673 352.663 119.673 343.715C119.673 335.209 125.859 329.023 134.476 329.023C142.982 329.023 149.113 335.209 149.113 343.771C149.113 344.323 149.113 344.986 149.057 345.593H124.368C125.031 351.227 129.118 354.983 134.807 354.983C138.95 354.983 142.595 352.884 144.362 349.57L148.174 351.503C145.909 356.254 140.883 359.126 134.697 359.126ZM124.423 341.561H144.307C143.479 336.535 139.557 333.166 134.255 333.166C129.118 333.166 125.196 336.535 124.423 341.561Z" fill="#1F1E1C"/>
<path d="M167.437 371.829C160.257 371.829 154.954 368.35 153.076 362.55L157.661 360.838C159.152 365.146 162.687 367.687 167.658 367.687C173.734 367.687 177.711 363.765 177.711 357.524V353.768H177.158C174.728 356.861 171.359 358.739 166.995 358.739C158.6 358.739 152.524 352.608 152.524 344.047C152.524 335.43 158.6 329.079 166.995 329.079C171.469 329.079 174.838 331.012 177.214 334.105H177.766V330.128H182.295V357.524C182.295 366.251 176.44 371.829 167.437 371.829ZM167.492 354.707C173.513 354.707 177.876 350.178 177.876 344.047C177.876 337.75 173.458 333.166 167.492 333.166C161.472 333.166 157.108 337.75 157.108 344.047C157.108 350.178 161.472 354.707 167.492 354.707Z" fill="#1F1E1C"/>
<path d="M204.224 325.267H199.418L205.328 317.424H210.52L204.224 325.267ZM202.014 359.126C193.232 359.126 187.046 352.884 187.046 344.047C187.046 335.265 193.232 329.023 202.014 329.023C210.741 329.023 216.983 335.265 216.983 344.047C216.983 352.884 210.741 359.126 202.014 359.126ZM202.014 354.983C208.035 354.983 212.398 350.399 212.398 344.047C212.398 337.75 208.035 333.166 202.014 333.166C195.939 333.166 191.63 337.75 191.63 344.047C191.63 350.399 195.939 354.983 202.014 354.983Z" fill="#1F1E1C"/>
<path d="M234.856 359.126C226.406 359.126 220.275 352.774 220.33 344.047C220.33 335.32 226.406 329.023 234.856 329.023C241.705 329.023 247.394 333.332 248.444 339.297L243.97 339.904C242.976 335.872 239.165 333.166 234.912 333.166C229.223 333.166 224.859 337.64 224.914 344.047C224.914 350.509 229.167 354.983 234.856 354.983C239.22 354.983 242.921 352.277 244.025 348.355L248.554 348.963C247.284 354.873 241.54 359.126 234.856 359.126Z" fill="#1F1E1C"/>
<path d="M256.138 324.826C254.205 324.826 252.824 323.445 252.824 321.512C252.824 319.634 254.205 318.308 256.138 318.308C258.071 318.308 259.397 319.634 259.397 321.512C259.397 323.445 258.071 324.826 256.138 324.826ZM253.818 358.021V330.128H258.403V358.021H253.818Z" fill="#1F1E1C"/>
<path d="M278.614 359.126C269.832 359.126 263.646 352.884 263.646 344.047C263.646 335.265 269.832 329.023 278.614 329.023C287.341 329.023 293.583 335.265 293.583 344.047C293.583 352.884 287.341 359.126 278.614 359.126ZM278.614 354.983C284.635 354.983 288.998 350.399 288.998 344.047C288.998 337.75 284.635 333.166 278.614 333.166C272.539 333.166 268.231 337.75 268.231 344.047C268.231 350.399 272.539 354.983 278.614 354.983Z" fill="#1F1E1C"/>
<path d="M309.799 359.126C301.791 359.126 297.151 355.204 297.151 348.576H301.57C301.625 352.553 304.718 355.259 309.965 355.259C314.163 355.259 316.869 353.492 316.869 350.564C316.869 346.919 313.058 346.643 308.861 346.091C303.669 345.483 297.648 344.102 297.648 337.75C297.648 332.337 302.177 329.023 308.861 329.023C315.82 329.023 320.57 332.724 320.57 338.468H316.096C316.041 335.044 313.114 332.89 308.805 332.89C304.773 332.89 302.012 334.712 302.012 337.585C302.012 341.064 305.767 341.34 309.91 341.838C315.157 342.5 321.178 343.826 321.178 350.509C321.178 355.977 316.925 359.126 309.799 359.126Z" fill="#1F1E1C"/>
<path fill-rule="evenodd" clip-rule="evenodd" d="M300.495 63.1324C300.495 71.55 298.833 79.6354 295.511 87.3885C292.778 94.2202 288.927 100.364 283.959 105.82C282.843 107.045 280.938 107.04 279.766 105.868L275.37 101.472C274.198 100.3 274.206 98.4065 275.308 97.1697C279.165 92.843 282.133 88.032 284.213 82.7366C286.872 76.5341 288.201 69.9994 288.201 63.1324C288.201 53.8287 285.875 45.3002 281.223 37.5471C276.793 29.5725 270.59 23.37 262.615 18.9397C254.862 14.2878 246.334 11.9619 237.03 11.9619C227.948 11.9619 219.42 14.2878 211.445 18.9397C203.692 23.5916 197.489 29.794 192.838 37.5471C188.186 45.3002 185.86 53.8287 185.86 63.1324C185.86 69.9994 187.078 76.5341 189.515 82.7366C192.173 88.9391 195.939 94.477 200.812 99.3504L293.431 191.969C294.82 193.358 297.148 193.06 298.039 191.31C302.777 182.002 305.147 171.728 305.147 160.489V151.527C305.147 149.87 306.49 148.527 308.147 148.527H336.371C338.028 148.527 339.371 149.87 339.371 151.527V157.489C339.371 159.146 338.028 160.489 336.371 160.489H320.109C318.452 160.489 317.114 161.833 317.061 163.489C316.616 177.416 313.055 190.131 306.378 201.635C305.675 202.845 305.852 204.383 306.846 205.367L333.856 232.113C335.761 233.999 334.425 237.245 331.745 237.245H322.671C321.875 237.245 321.112 236.929 320.55 236.366L300.137 215.953C298.898 214.714 296.868 214.8 295.682 216.091C288.612 223.783 280.358 229.837 270.922 234.254C260.511 239.128 249.324 241.564 237.362 241.564C227.504 241.564 218.114 239.903 209.19 236.58H160.923C160.022 236.58 159.169 236.175 158.599 235.477L85.0042 145.331L53.8358 177.866V233.58C53.8358 235.237 52.4926 236.58 50.8358 236.58H3.3394C1.68255 236.58 0.339401 235.237 0.339401 233.58V6.9872C0.339401 5.33034 1.68255 3.98719 3.3394 3.98719H50.8358C52.4926 3.98719 53.8358 5.33034 53.8358 6.98719V112.527L155.954 4.92208C156.52 4.3252 157.307 3.98719 158.13 3.98719H209.768C210.807 3.98719 211.648 4.47834 212.173 5.19079C220.037 1.73026 228.434 0 237.362 0C248.881 0 259.403 2.87972 268.929 8.63915C278.675 14.1771 286.318 21.8194 291.856 31.5662C297.615 41.0914 300.495 51.6135 300.495 63.1324ZM175.58 48.1854C174.459 52.9658 173.898 57.9481 173.898 63.1324C173.898 76.2884 177.332 87.9184 184.199 98.0224C185.098 99.3456 184.888 101.145 183.693 102.209C175.643 109.378 169.277 117.951 164.594 127.926C160.671 136.486 158.327 145.405 157.562 154.683L120.356 107.616L175.58 48.1854ZM213.531 225.488L169.745 170.095C169.412 167.281 169.246 164.411 169.246 161.486C169.246 151.518 171.35 141.992 175.559 132.91C179.587 124.652 184.989 117.493 191.764 111.433C192.918 110.401 194.671 110.488 195.766 111.583L287.272 203.088C288.364 204.181 288.454 205.929 287.424 207.081C281.557 213.648 274.506 218.94 266.27 222.957C257.188 227.387 247.552 229.602 237.362 229.602C228.962 229.602 221.018 228.231 213.531 225.488ZM298.712 111.68C298.327 112.205 298.114 112.838 298.114 113.489V128.914C298.114 130.57 299.457 131.914 301.114 131.914H343.782H351.61C352.558 131.914 353.327 132.682 353.327 133.631V169.298C353.327 172.002 356.623 173.326 358.493 171.374L381.313 147.553C382.569 146.242 384.692 146.338 385.824 147.757L456.373 236.144C456.942 236.857 457.805 237.273 458.718 237.273H513.952C516.446 237.273 517.851 234.406 516.323 232.434L420.76 109.171C419.86 108.01 419.933 106.368 420.934 105.291L509.74 9.72176C511.523 7.80247 510.162 4.67963 507.542 4.67963H455.904C455.081 4.67963 454.295 5.01764 453.728 5.61452L356.786 107.766C354.92 109.732 351.61 108.411 351.61 105.7V7.67963C351.61 6.02278 350.267 4.67963 348.61 4.67963H301.114C299.457 4.67963 298.114 6.02278 298.114 7.67963V14.3784C298.114 15.0247 298.324 15.6526 298.704 16.1756C300.398 18.5092 301.976 20.9533 303.436 23.5058C310.806 35.7764 314.451 49.344 314.451 63.8248C314.451 74.521 312.339 84.8597 308.15 94.7043C305.697 100.791 302.542 106.457 298.712 111.68ZM351.635 178.501C351.63 178.493 351.621 178.488 351.61 178.488H346.023H332.21C330.742 178.488 329.495 179.55 329.218 180.991C328.015 187.243 326.221 193.305 323.829 199.159C323.361 200.304 323.611 201.624 324.491 202.494L346.499 224.287C348.393 226.163 351.61 224.821 351.61 222.155V178.573C351.61 178.564 351.614 178.555 351.62 178.548L351.631 178.537C351.641 178.526 351.641 178.512 351.635 178.501Z" fill="#1F1E1C"/>
</svg>
