<svg width="110" height="119" viewBox="0 0 110 119" fill="none" xmlns="http://www.w3.org/2000/svg">
<path d="M29.452 86.8503C27.6297 88.7526 24.4158 87.5505 24.2892 84.9192L23.1638 61.5374C23.1245 60.7198 23.4209 59.9217 23.9843 59.328L78.8819 1.48067C79.4484 0.883784 80.2351 0.545776 81.058 0.545776H103.334C105.954 0.545776 107.315 3.66862 105.532 5.58791L59.1322 55.5211L43.9083 71.76L29.452 86.8503ZM3.09717 118.954C1.44031 118.954 0.097168 117.611 0.097168 115.954V3.54578C0.097168 1.88892 1.44031 0.545776 3.09717 0.545776H24.3311C25.988 0.545776 27.3311 1.88892 27.3311 3.54578V115.954C27.3311 117.611 25.988 118.954 24.3311 118.954H3.09717ZM82.546 118.954C81.645 118.954 80.7918 118.549 80.2221 117.851L40.649 69.3784C39.7045 68.2215 39.7548 66.5461 40.767 65.448L54.5523 50.4922C55.8022 49.1362 57.9681 49.2183 59.1117 50.6651L109.251 114.094C110.806 116.061 109.405 118.954 106.897 118.954H82.546Z" fill="white"/>
</svg>
