<svg width="48" height="48" viewBox="0 0 48 48" fill="none" xmlns="http://www.w3.org/2000/svg">
<path d="M35.9995 0V12H47.9995L35.9995 0ZM23.1932 22.7156C22.1432 21.6469 21.9651 21.5156 21.7213 20.7C21.637 20.4281 21.5526 20.0813 21.4213 19.5938C21.3557 19.35 21.2713 19.125 21.1495 18.9188C20.7932 18.2906 20.2026 17.8219 19.4901 17.625C18.2901 17.2969 17.9338 17.2313 17.4932 16.875C17.3245 16.7344 17.137 16.5469 16.7901 16.2844C16.7432 16.1531 16.5088 15.9938 16.4151 15.825C16.1807 15.5813 15.9088 15.4125 15.6182 15.1969C15.5432 15.2438 15.4776 15.2156 15.4026 15.1875C15.112 15.075 14.7932 15 14.4745 15C14.4728 15 14.4761 15 14.4745 15C14.4743 15 14.4747 15 14.4745 15C14.4743 15 14.4747 15 14.4745 15C14.2401 15 14.0057 15.0281 13.7713 15.0938C13.7942 15.0875 13.8164 15.0901 13.8393 15.085C13.8182 15.0094 13.7901 15.0844 13.7713 15.0938C12.8151 15.3563 12.4026 15.4781 11.9151 15.4781C11.5064 15.4781 11.0997 15.3492 10.1507 15.0914C10.0026 15.0281 9.75884 15 9.52446 15C9.52281 15 9.52611 15 9.52446 15C9.20384 15 8.89259 15.075 8.59446 15.1875C8.5204 15.2156 8.45196 15.2438 8.38071 15.1969C8.09102 15.4125 7.8154 15.5813 7.5829 15.825C6.17665 17.2406 6.41102 17.1 4.51258 17.625C3.56383 17.8875 2.82133 18.6375 2.57571 19.5938C2.38258 20.325 2.28508 20.7469 2.16039 21.0563C1.95321 21.5906 1.67758 21.825 0.806268 22.7156C0.630487 22.8844 0.48583 23.0813 0.365643 23.2969C0.00531417 23.925 -0.0978578 24.6844 0.0954549 25.4156C0.61108 27.3488 0.599362 27.0797 0.0954549 29.0138C-0.0978578 29.7345 0.00530478 30.495 0.365643 31.1269C0.485736 31.3375 0.630487 31.5338 0.806268 31.7096C1.84314 32.7727 2.03346 32.9067 2.28002 33.7233C2.36205 33.9954 2.44689 34.3433 2.5758 34.8268C2.82189 35.7999 3.56393 36.5499 4.51362 36.8068C5.18749 36.9884 5.45674 37.0588 5.60862 37.107C5.76049 37.1553 5.7964 37.1817 6.00124 37.2755V48L12.0003 45L17.9994 48V37.275C18.3978 37.0875 18.1401 37.1696 19.4872 36.8063C20.1989 36.613 20.7913 36.1427 21.1475 35.5088C21.2662 35.2978 21.3591 35.0686 21.4206 34.8254C21.5495 34.3391 21.6365 33.9897 21.7177 33.7173C21.9609 32.8992 22.1442 32.7714 23.1896 31.7083C23.8927 31.0051 24.1627 29.9739 23.9044 29.0129C23.4005 27.0798 23.3888 27.3489 23.9044 25.4148C24.1588 24.45 23.8963 23.4188 23.1932 22.7156ZM11.9995 33C11.5849 33 11.18 32.9583 10.7892 32.8784C10.0077 32.7188 9.28165 32.4072 8.64321 31.9761C8.00505 31.5447 7.45446 30.9945 7.02321 30.3561C6.37821 29.4 6.00133 28.2469 6.00133 27C6.00133 25.7531 6.3783 24.6019 7.02509 23.6438C7.45596 23.0054 8.00665 22.455 8.64509 22.0238C9.28343 21.5927 10.0092 21.2811 10.791 21.1214C11.1838 21.0375 11.587 21 11.9995 21C15.3154 21 17.9985 23.6831 17.9985 27C17.9985 30.3169 15.3182 33 11.9995 33Z" fill="#FF4545"/>
<path d="M35.9995 12V0H16.4995C14.0151 0 11.9995 2.01469 11.9995 4.5L11.9996 12.4631C12.162 12.4269 12.3562 12.3683 12.6257 12.295L12.9815 12.1984C13.4677 12.0666 13.9696 11.9995 14.4721 11.9995C15.9937 11.9995 17.4815 12.6254 18.555 13.717L18.812 13.9789C19.0155 14.1869 19.1578 14.3414 19.2833 14.4572C19.4418 14.5092 19.6404 14.5571 19.9117 14.6311L20.2726 14.73C22.2508 15.272 23.793 16.8319 24.317 18.8147L24.4224 19.2133C24.4966 19.4953 24.5436 19.699 24.5962 19.8611C24.7125 19.9933 24.87 20.1428 25.0846 20.3603L25.3107 20.5895C26.7694 22.0679 27.3376 24.197 26.7994 26.2032L26.7196 26.5009C26.6359 26.8129 26.5699 27.0301 26.5336 27.2096C26.5683 27.375 26.6245 27.5719 26.6995 27.8532L26.8012 28.2399C27.3366 30.2358 26.7653 32.3789 25.3274 33.8161L25.0579 34.0893C24.8559 34.2937 24.7059 34.4365 24.5939 34.5625C24.5414 34.7262 24.494 34.9319 24.4194 35.2166L24.3273 35.566C23.8822 37.3257 22.638 38.7591 20.9973 39.4538L20.9151 48H43.4995C45.9849 48 47.9995 45.9854 47.9995 43.5V12H35.9995Z" fill="#2E2640"/>
</svg>
