<svg width="48" height="48" viewBox="0 0 48 48" fill="none" xmlns="http://www.w3.org/2000/svg">
<path d="M23.9994 15C14.8822 15 7.49939 22.3828 7.49939 31.5C7.49939 40.6172 14.8869 48 23.9994 48C33.1119 48 40.4994 40.6172 40.4994 31.5C40.4994 22.3828 33.1213 15 23.9994 15ZM32.6713 29.7469L29.12 33.2156L29.952 38.1141C30.1044 38.9812 29.1786 39.6609 28.393 39.2391L23.998 36.9309L19.6025 39.2344C18.8174 39.6562 17.8916 38.9766 18.0435 38.1094L18.8755 33.2109L15.3242 29.7422C14.6806 29.1187 15.0463 28.0313 15.9275 27.9L20.8381 27.1852L23.0338 22.7344C23.2213 22.3359 23.608 22.1367 23.9947 22.1367C24.3814 22.1367 24.7681 22.3406 24.9556 22.7344L27.1588 27.1875L32.0694 27.9023C32.9619 28.0312 33.3181 29.1187 32.6713 29.7469Z" fill="#2E2640"/>
<path d="M12.7777 0H1.50238C0.288319 0 -0.422306 1.36687 0.274256 2.36063L12.4899 19.6856C15.1843 17.0616 18.7711 15.3609 22.7555 15.0637L13.9777 0.728437C13.7902 0.276469 13.3027 0 12.7777 0ZM46.4152 0H35.2214C34.6945 0 34.2061 0.276469 33.9352 0.728437L25.2371 15.0656C29.2214 15.3626 32.8083 17.0634 35.5027 19.6875L47.7183 2.3625C48.4214 1.36688 47.7089 0 46.4152 0Z" fill="#FF4545"/>
</svg>
