<svg width="58" height="46" viewBox="0 0 58 46" fill="none" xmlns="http://www.w3.org/2000/svg">
<path d="M14.5 28.75C19.3049 28.75 23.2 24.8885 23.2 20.125C23.2 15.3615 19.3049 11.5 14.5 11.5C9.61531 11.5 5.8 15.2824 5.8 20.125C5.8 24.8867 9.61531 28.75 14.5 28.75ZM17.4 31.625H11.6C5.19372 31.625 0 36.7739 0 43.125C0 44.7125 1.29866 46 2.9 46H26.1C27.7013 46 29 44.7125 29 43.125C29 36.773 23.8072 31.625 17.4 31.625ZM20.3 5.75V10.2251C23.7528 12.2188 26.1 15.8844 26.1 20.125C26.1 23.8814 24.2748 27.1418 21.4564 29.325C23.1366 29.8102 24.6681 30.6098 26.0366 31.625H34.7991V27.3125C34.7991 26.5185 35.4483 25.875 36.2491 25.875H44.9491C45.7499 25.875 46.3991 26.5185 46.3991 27.3125V31.625H52.1991V5.75H20.3Z" fill="#2E2640"/>
<path d="M53.65 0H18.85C16.4484 0 14.5 1.99902 14.5 4.45895V8.625C16.6224 8.625 18.5872 9.23423 20.2184 10.2251V5.75H52.1184V31.625H26.0366C28.0367 33.1056 29.6199 35.084 30.6367 37.375H53.6464C56.0516 37.375 58 35.3805 58 32.9188V4.45895C58 1.99902 56.0516 0 53.65 0Z" fill="#FF4545"/>
</svg>
