<svg width="158" height="80" viewBox="0 0 158 80" fill="none" xmlns="http://www.w3.org/2000/svg">
<path d="M6.10352e-05 64.859L3.16112 56.4811H4.63469L7.7601 64.859H6.72622L6.0132 62.9814H1.74696L1.03394 64.859H6.10352e-05ZM2.06782 62.0901H5.70422L3.94544 57.4317H3.83849L2.06782 62.0901Z" fill="#F0F0F0"/>
<path d="M10.806 65.0967C9.0829 65.0967 8.08467 64.253 8.08467 62.8269H9.03537C9.04725 63.6826 9.71273 64.2649 10.8417 64.2649C11.7448 64.2649 12.3271 63.8846 12.3271 63.2547C12.3271 62.4704 11.5072 62.411 10.604 62.2922C9.48695 62.1614 8.19162 61.8644 8.19162 60.4977C8.19162 59.3331 9.16609 58.6201 10.604 58.6201C12.1014 58.6201 13.1233 59.4163 13.1233 60.6522H12.1608C12.1489 59.9154 11.5191 59.452 10.5921 59.452C9.72462 59.452 9.13043 59.8441 9.13043 60.4621C9.13043 61.2108 9.93852 61.2702 10.8298 61.3771C11.9587 61.5197 13.2541 61.8049 13.2541 63.2429C13.2541 64.4193 12.339 65.0967 10.806 65.0967Z" fill="#F0F0F0"/>
<path d="M16.8064 65.0967C15.0832 65.0967 14.085 64.253 14.085 62.8269H15.0357C15.0476 63.6826 15.7131 64.2649 16.842 64.2649C17.7452 64.2649 18.3275 63.8846 18.3275 63.2547C18.3275 62.4704 17.5075 62.411 16.6043 62.2922C15.4873 62.1614 14.1919 61.8644 14.1919 60.4977C14.1919 59.3331 15.1664 58.6201 16.6043 58.6201C18.1017 58.6201 19.1237 59.4163 19.1237 60.6522H18.1611C18.1492 59.9154 17.5194 59.452 16.5925 59.452C15.7249 59.452 15.1308 59.8441 15.1308 60.4621C15.1308 61.2108 15.9388 61.2702 16.8301 61.3771C17.9591 61.5197 19.2544 61.8049 19.2544 63.2429C19.2544 64.4193 18.3394 65.0967 16.8064 65.0967Z" fill="#F0F0F0"/>
<path d="M23.2701 65.0967C21.3925 65.0967 20.0378 63.7063 20.0378 61.7812C20.0378 59.9511 21.3688 58.6201 23.2226 58.6201C25.0527 58.6201 26.3718 59.9511 26.3718 61.7931C26.3718 61.9119 26.3718 62.0545 26.3599 62.1852H21.0479C21.1905 63.3973 22.0699 64.2054 23.2939 64.2054C24.1852 64.2054 24.9695 63.7539 25.3498 63.0408L26.1698 63.4568C25.6825 64.4788 24.6011 65.0967 23.2701 65.0967ZM21.0598 61.3177H25.3379C25.1596 60.2363 24.3159 59.5114 23.1751 59.5114C22.0699 59.5114 21.2262 60.2363 21.0598 61.3177Z" fill="#F0F0F0"/>
<path d="M29.8747 65.0967C28.1516 65.0967 27.1533 64.253 27.1533 62.8269H28.104C28.1159 63.6826 28.7814 64.2649 29.9103 64.2649C30.8135 64.2649 31.3958 63.8846 31.3958 63.2547C31.3958 62.4704 30.5758 62.411 29.6727 62.2922C28.5556 62.1614 27.2603 61.8644 27.2603 60.4977C27.2603 59.3331 28.2347 58.6201 29.6727 58.6201C31.17 58.6201 32.192 59.4163 32.192 60.6522H31.2294C31.2175 59.9154 30.5877 59.452 29.6608 59.452C28.7933 59.452 28.1991 59.8441 28.1991 60.4621C28.1991 61.2108 29.0072 61.2702 29.8985 61.3771C31.0274 61.5197 32.3227 61.8049 32.3227 63.2429C32.3227 64.4193 31.4077 65.0967 29.8747 65.0967Z" fill="#F0F0F0"/>
<path d="M35.875 65.0967C34.1519 65.0967 33.1536 64.253 33.1536 62.8269H34.1043C34.1162 63.6826 34.7817 64.2649 35.9107 64.2649C36.8138 64.2649 37.3961 63.8846 37.3961 63.2547C37.3961 62.4704 36.5761 62.411 35.673 62.2922C34.5559 62.1614 33.2606 61.8644 33.2606 60.4977C33.2606 59.3331 34.2351 58.6201 35.673 58.6201C37.1703 58.6201 38.1923 59.4163 38.1923 60.6522H37.2297C37.2179 59.9154 36.588 59.452 35.6611 59.452C34.7936 59.452 34.1994 59.8441 34.1994 60.4621C34.1994 61.2108 35.0075 61.2702 35.8988 61.3771C37.0277 61.5197 38.323 61.8049 38.323 63.2429C38.323 64.4193 37.408 65.0967 35.875 65.0967Z" fill="#F0F0F0"/>
<path d="M42.315 65.0967C40.4255 65.0967 39.0946 63.7539 39.0946 61.8525C39.0946 59.963 40.4255 58.6201 42.315 58.6201C44.1926 58.6201 45.5355 59.963 45.5355 61.8525C45.5355 63.7539 44.1926 65.0967 42.315 65.0967ZM42.315 64.2054C43.6104 64.2054 44.5492 63.2191 44.5492 61.8525C44.5492 60.4977 43.6104 59.5114 42.315 59.5114C41.0078 59.5114 40.0809 60.4977 40.0809 61.8525C40.0809 63.2191 41.0078 64.2054 42.315 64.2054Z" fill="#F0F0F0"/>
<path d="M46.5647 64.859V58.8578H47.5272V59.6659H47.6342C47.9075 59.1192 48.573 58.7389 49.2385 58.7389C49.5118 58.7389 49.797 58.7984 49.9753 58.8934V59.8085C49.6663 59.6778 49.3098 59.6302 49.084 59.6302C48.1808 59.6302 47.551 60.4383 47.551 61.6267V64.859H46.5647Z" fill="#F0F0F0"/>
<path d="M51.3604 57.717C50.9444 57.717 50.6473 57.4199 50.6473 57.0039C50.6473 56.5999 50.9444 56.3147 51.3604 56.3147C51.7763 56.3147 52.0615 56.5999 52.0615 57.0039C52.0615 57.4199 51.7763 57.717 51.3604 57.717ZM50.8612 64.859V58.8578H51.8476V64.859H50.8612Z" fill="#F0F0F0"/>
<path d="M54.9722 65.0492C53.6768 65.0492 52.8212 64.3718 52.8212 63.3379C52.8212 62.2803 53.7244 61.496 55.5069 61.2939L57.1706 61.0919V60.8542C57.1706 60.0462 56.5883 59.5233 55.602 59.5233C54.6988 59.5233 54.1047 59.963 54.1165 60.7116H53.1183C53.1183 59.4401 54.1047 58.632 55.6139 58.632C57.1706 58.632 58.157 59.5114 58.157 60.878V64.859H57.1706V63.9796H57.0637C56.6359 64.6689 55.9347 65.0492 54.9722 65.0492ZM55.1148 64.2292C56.3388 64.2292 57.1706 63.4805 57.1706 62.4704V61.9357L55.5069 62.1258C54.2829 62.2803 53.8076 62.7556 53.8076 63.3142C53.8076 63.8846 54.3067 64.2292 55.1148 64.2292Z" fill="#F0F0F0"/>
<path d="M64.8087 65.0967C62.9311 65.0967 61.5763 63.7063 61.5763 61.7812C61.5763 59.9511 62.9073 58.6201 64.7612 58.6201C66.5912 58.6201 67.9103 59.9511 67.9103 61.7931C67.9103 61.9119 67.9103 62.0545 67.8984 62.1852H62.5864C62.729 63.3973 63.6084 64.2054 64.8325 64.2054C65.7237 64.2054 66.508 63.7539 66.8883 63.0408L67.7083 63.4568C67.2211 64.4788 66.1397 65.0967 64.8087 65.0967ZM62.5983 61.3177H66.8764C66.6982 60.2363 65.8544 59.5114 64.7136 59.5114C63.6084 59.5114 62.7647 60.2363 62.5983 61.3177Z" fill="#F0F0F0"/>
<path d="M75.6676 65.1561C73.0413 65.1561 71.1518 63.2666 71.1518 60.6641C71.1518 58.0616 73.0413 56.184 75.6676 56.184C77.4264 56.184 79.0188 57.206 79.4822 58.6082L78.4959 58.941C78.1394 57.8952 76.9629 57.1347 75.6676 57.1347C73.6592 57.1347 72.2332 58.5963 72.2332 60.6641C72.2332 62.7081 73.6711 64.2054 75.6676 64.2054C77.4739 64.2054 78.8999 62.9101 78.9475 61.2226L74.7882 61.2108V60.2482H80.0408C80.219 63.1003 78.3889 65.1561 75.6676 65.1561Z" fill="#F0F0F0"/>
<path d="M84.0166 65.0967C82.139 65.0967 80.7842 63.7063 80.7842 61.7812C80.7842 59.9511 82.1152 58.6201 83.9691 58.6201C85.7991 58.6201 87.1182 59.9511 87.1182 61.7931C87.1182 61.9119 87.1182 62.0545 87.1064 62.1852H81.7943C81.937 63.3973 82.8163 64.2054 84.0404 64.2054C84.9316 64.2054 85.716 63.7539 86.0962 63.0408L86.9162 63.4568C86.429 64.4788 85.3476 65.0967 84.0166 65.0967ZM81.8062 61.3177H86.0844C85.9061 60.2363 85.0624 59.5114 83.9215 59.5114C82.8164 59.5114 81.9726 60.2363 81.8062 61.3177Z" fill="#F0F0F0"/>
<path d="M90.6211 65.0967C88.898 65.0967 87.8998 64.253 87.8998 62.8269H88.8505C88.8624 63.6826 89.5278 64.2649 90.6568 64.2649C91.5599 64.2649 92.1422 63.8846 92.1422 63.2547C92.1422 62.4704 91.3223 62.411 90.4191 62.2922C89.302 62.1614 88.0067 61.8644 88.0067 60.4977C88.0067 59.3331 88.9812 58.6201 90.4191 58.6201C91.9165 58.6201 92.9385 59.4163 92.9385 60.6522H91.9759C91.964 59.9154 91.3342 59.452 90.4072 59.452C89.5397 59.452 88.9455 59.8441 88.9455 60.4621C88.9455 61.2108 89.7536 61.2702 90.6449 61.3771C91.7738 61.5197 93.0692 61.8049 93.0692 63.2429C93.0692 64.4193 92.1541 65.0967 90.6211 65.0967Z" fill="#F0F0F0"/>
<path d="M96.3363 65.0848C95.3261 65.0848 94.6844 64.3718 94.6844 63.3142V59.6421H93.71V58.8578H94.6844L94.9102 56.9207H95.6827L95.6708 58.8578H97.2156V59.6421H95.6708V63.2785C95.6708 63.8489 96.0273 64.253 96.5977 64.253C96.7759 64.253 97.0849 64.2054 97.3107 64.1341V64.9303C97.0255 65.0254 96.6333 65.0848 96.3363 65.0848Z" fill="#F0F0F0"/>
<path d="M101.418 57.812C100.539 57.812 100.337 57.1347 99.7543 57.1347C99.4572 57.1347 99.1958 57.3129 99.0532 57.5625L98.5303 57.1703C98.7561 56.695 99.2671 56.3622 99.8375 56.3622C100.657 56.3622 100.907 57.0515 101.501 57.0515C101.822 57.0515 102.095 56.8613 102.226 56.5999L102.761 56.992C102.547 57.4793 102.048 57.812 101.418 57.812ZM100.004 65.0492C98.7085 65.0492 97.8529 64.3718 97.8529 63.3379C97.8529 62.2803 98.7561 61.496 100.539 61.2939L102.202 61.0919V60.8542C102.202 60.0462 101.62 59.5233 100.634 59.5233C99.7305 59.5233 99.1363 59.963 99.1482 60.7116H98.15C98.15 59.4401 99.1363 58.632 100.646 58.632C102.202 58.632 103.189 59.5114 103.189 60.878V64.859H102.202V63.9796H102.095C101.668 64.6689 100.966 65.0492 100.004 65.0492ZM100.146 64.2292C101.37 64.2292 102.202 63.4805 102.202 62.4704V61.9357L100.539 62.1258C99.3146 62.2803 98.8392 62.7556 98.8392 63.3142C98.8392 63.8846 99.3384 64.2292 100.146 64.2292Z" fill="#F0F0F0"/>
<path d="M107.321 65.0967C105.432 65.0967 104.101 63.7539 104.101 61.8525C104.101 59.963 105.432 58.6201 107.321 58.6201C109.199 58.6201 110.542 59.963 110.542 61.8525C110.542 63.7539 109.199 65.0967 107.321 65.0967ZM107.321 64.2054C108.616 64.2054 109.555 63.2191 109.555 61.8525C109.555 60.4977 108.616 59.5114 107.321 59.5114C106.014 59.5114 105.087 60.4977 105.087 61.8525C105.087 63.2191 106.014 64.2054 107.321 64.2054Z" fill="#F0F0F0"/>
<path d="M3.36314 77.2667C1.60436 77.2667 0.249618 75.9001 0.249618 74.0225C0.249618 72.1449 1.59247 70.7901 3.35126 70.7901C4.31383 70.7901 5.11004 71.1942 5.54974 71.9191H5.66857V68.2946H6.65492V77.0291H5.66857V76.1021H5.54974C5.11004 76.8389 4.3376 77.2667 3.36314 77.2667ZM3.47009 76.3755C4.75353 76.3755 5.69234 75.3416 5.69234 74.0225C5.69234 72.7034 4.75353 71.6814 3.47009 71.6814C2.17477 71.6814 1.23596 72.7034 1.23596 74.0225C1.23596 75.3654 2.18666 76.3755 3.47009 76.3755Z" fill="#F0F0F0"/>
<path d="M10.9213 77.2667C9.04372 77.2667 7.68898 75.8763 7.68898 73.9512C7.68898 72.1211 9.01995 70.7901 10.8738 70.7901C12.7039 70.7901 14.023 72.1211 14.023 73.9631C14.023 74.0819 14.023 74.2245 14.0111 74.3552H8.69909C8.8417 75.5674 9.72109 76.3755 10.9451 76.3755C11.8364 76.3755 12.6207 75.9239 13.001 75.2109L13.821 75.6268C13.3337 76.6488 12.2523 77.2667 10.9213 77.2667ZM8.71098 73.4877H12.9891C12.8108 72.4063 11.9671 71.6814 10.8263 71.6814C9.72109 71.6814 8.87735 72.4063 8.71098 73.4877Z" fill="#F0F0F0"/>
<path d="M17.7754 77.0291V68.6511H19.3322L23.3013 75.603H23.4083V68.6511H24.4897V77.0291H22.9448L18.9757 70.0771H18.8568V77.0291H17.7754Z" fill="#F0F0F0"/>
<path d="M28.9803 77.2667C27.1027 77.2667 25.748 75.8763 25.748 73.9512C25.748 72.1211 27.079 70.7901 28.9328 70.7901C30.7629 70.7901 32.082 72.1211 32.082 73.9631C32.082 74.0819 32.082 74.2245 32.0701 74.3552H26.7581C26.9007 75.5674 27.7801 76.3755 29.0041 76.3755C29.8954 76.3755 30.6797 75.9239 31.06 75.2109L31.88 75.6268C31.3927 76.6488 30.3113 77.2667 28.9803 77.2667ZM26.77 73.4877H31.0481C30.8698 72.4063 30.0261 71.6814 28.8853 71.6814C27.7801 71.6814 26.9364 72.4063 26.77 73.4877Z" fill="#F0F0F0"/>
<path d="M36.0246 80C34.4797 80 33.3389 79.2513 32.9348 78.0035L33.9212 77.6351C34.242 78.5621 35.0026 79.1087 36.0721 79.1087C37.3793 79.1087 38.2349 78.265 38.2349 76.9221V76.114H38.1161C37.5932 76.7795 36.8683 77.1836 35.9295 77.1836C34.1232 77.1836 32.816 75.8645 32.816 74.0225C32.816 72.1686 34.1232 70.802 35.9295 70.802C36.8921 70.802 37.617 71.2179 38.128 71.8834H38.2468V71.0278H39.2213V76.9221C39.2213 78.7997 37.9616 80 36.0246 80ZM36.0365 76.316C37.3318 76.316 38.2706 75.3416 38.2706 74.0225C38.2706 72.6678 37.3199 71.6814 36.0365 71.6814C34.7411 71.6814 33.8023 72.6678 33.8023 74.0225C33.8023 75.3416 34.7411 76.316 36.0365 76.316Z" fill="#F0F0F0"/>
<path d="M43.9393 69.982H42.9054L44.177 68.2946H45.294L43.9393 69.982ZM43.4639 77.2667C41.5744 77.2667 40.2435 75.9239 40.2435 74.0225C40.2435 72.133 41.5744 70.7901 43.4639 70.7901C45.3416 70.7901 46.6844 72.133 46.6844 74.0225C46.6844 75.9239 45.3416 77.2667 43.4639 77.2667ZM43.4639 76.3755C44.7593 76.3755 45.6981 75.3891 45.6981 74.0225C45.6981 72.6678 44.7593 71.6814 43.4639 71.6814C42.1567 71.6814 41.2298 72.6678 41.2298 74.0225C41.2298 75.3891 42.1567 76.3755 43.4639 76.3755Z" fill="#F0F0F0"/>
<path d="M50.53 77.2667C48.7118 77.2667 47.3927 75.9001 47.4046 74.0225C47.4046 72.1449 48.7118 70.7901 50.53 70.7901C52.0036 70.7901 53.2276 71.7171 53.4534 73.0005L52.4908 73.1312C52.2769 72.2637 51.4569 71.6814 50.5419 71.6814C49.3179 71.6814 48.379 72.644 48.3909 74.0225C48.3909 75.4129 49.306 76.3755 50.53 76.3755C51.4688 76.3755 52.265 75.7932 52.5027 74.9494L53.4771 75.0801C53.2038 76.3517 51.9679 77.2667 50.53 77.2667Z" fill="#F0F0F0"/>
<path d="M55.1088 69.887C54.6929 69.887 54.3958 69.5899 54.3958 69.174C54.3958 68.7699 54.6929 68.4847 55.1088 68.4847C55.5247 68.4847 55.81 68.7699 55.81 69.174C55.81 69.5899 55.5247 69.887 55.1088 69.887ZM54.6097 77.0291V71.0278H55.5961V77.0291H54.6097Z" fill="#F0F0F0"/>
<path d="M59.9446 77.2667C58.0551 77.2667 56.7242 75.9239 56.7242 74.0225C56.7242 72.133 58.0551 70.7901 59.9446 70.7901C61.8223 70.7901 63.1651 72.133 63.1651 74.0225C63.1651 75.9239 61.8223 77.2667 59.9446 77.2667ZM59.9446 76.3755C61.24 76.3755 62.1788 75.3891 62.1788 74.0225C62.1788 72.6678 61.24 71.6814 59.9446 71.6814C58.6374 71.6814 57.7105 72.6678 57.7105 74.0225C57.7105 75.3891 58.6374 76.3755 59.9446 76.3755Z" fill="#F0F0F0"/>
<path d="M66.6542 77.2667C64.931 77.2667 63.9328 76.423 63.9328 74.997H64.8835C64.8954 75.8526 65.5609 76.4349 66.6898 76.4349C67.593 76.4349 68.1753 76.0546 68.1753 75.4248C68.1753 74.6404 67.3553 74.581 66.4522 74.4622C65.3351 74.3315 64.0398 74.0344 64.0398 72.6678C64.0398 71.5032 65.0142 70.7901 66.4522 70.7901C67.9495 70.7901 68.9715 71.5863 68.9715 72.8222H68.0089C67.997 72.0855 67.3672 71.622 66.4403 71.622C65.5728 71.622 64.9786 72.0142 64.9786 72.6321C64.9786 73.3808 65.7867 73.4402 66.6779 73.5471C67.8069 73.6898 69.1022 73.975 69.1022 75.4129C69.1022 76.5894 68.1872 77.2667 66.6542 77.2667Z" fill="#F0F0F0"/>
<path fill-rule="evenodd" clip-rule="evenodd" d="M64.6523 13.5831C64.6523 15.3941 64.2948 17.1337 63.5799 18.8018C62.992 20.2717 62.1635 21.5935 61.0945 22.7673C60.8545 23.0309 60.4445 23.0299 60.1924 22.7778L59.2465 21.8319C58.9944 21.5798 58.9961 21.1724 59.2333 20.9063C60.063 19.9754 60.7017 18.9403 61.1493 17.801C61.7212 16.4665 62.0071 15.0605 62.0071 13.5831C62.0071 11.5813 61.5067 9.74643 60.5058 8.07833C59.5526 6.36258 58.2182 5.0281 56.5024 4.0749C54.8343 3.07404 52.9994 2.57361 50.9977 2.57361C49.0436 2.57361 47.2087 3.07404 45.493 4.0749C43.8249 5.07576 42.4904 6.41024 41.4895 8.07833C40.4887 9.74643 39.9882 11.5813 39.9882 13.5831C39.9882 15.0605 40.2504 16.4665 40.7746 17.801C41.3465 19.1354 42.1568 20.3269 43.2053 21.3755L63.1325 41.3027C63.4312 41.6014 63.9322 41.5373 64.1238 41.1608C65.1434 39.158 65.6531 36.9477 65.6531 34.5296V32.6014C65.6531 32.2449 65.9421 31.956 66.2986 31.956H72.3711C72.7276 31.956 73.0166 32.2449 73.0166 32.6014V33.8841C73.0166 34.2406 72.7276 34.5296 72.3711 34.5296H68.8722C68.5157 34.5296 68.2279 34.8187 68.2165 35.175C68.1208 38.1715 67.3547 40.9072 65.918 43.3822C65.7669 43.6425 65.8048 43.9735 66.0187 44.1852L71.83 49.9397C72.2398 50.3453 71.9525 51.0438 71.3759 51.0438H69.4235C69.2523 51.0438 69.0881 50.9758 68.9671 50.8547L64.5752 46.4629C64.3086 46.1963 63.872 46.2148 63.6169 46.4924C62.0956 48.1474 60.3199 49.4501 58.2897 50.4004C56.0496 51.4489 53.6428 51.9731 51.0692 51.9731C48.9481 51.9731 46.9276 51.6157 45.0077 50.9007H34.6231C34.4292 50.9007 34.2457 50.8136 34.1231 50.6635L18.289 31.2683L11.583 38.2683V50.2553C11.583 50.6117 11.294 50.9007 10.9375 50.9007H0.718576C0.3621 50.9007 0.0731201 50.6117 0.0731201 50.2553V1.50325C0.0731201 1.14677 0.362101 0.85779 0.718577 0.85779H10.9375C11.294 0.85779 11.583 1.14677 11.583 1.50325V24.2105L33.554 1.05893C33.6758 0.930513 33.8451 0.85779 34.0222 0.85779H45.1322C45.3557 0.85779 45.5367 0.963472 45.6497 1.11677C47.3417 0.372241 49.1481 -2.28882e-05 51.0692 -2.28882e-05C53.5475 -2.28882e-05 55.8113 0.619555 57.8607 1.85871C59.9578 3.05021 61.602 4.69448 62.7935 6.79152C64.0327 8.8409 64.6523 11.1047 64.6523 13.5831ZM37.7766 10.3672C37.5353 11.3957 37.4146 12.4677 37.4146 13.5831C37.4146 16.4136 38.1534 18.9158 39.6309 21.0897C39.8244 21.3744 39.7791 21.7616 39.522 21.9906C37.79 23.533 36.4203 25.3773 35.4129 27.5236C34.5688 29.3653 34.0644 31.2842 33.8999 33.2803L25.895 23.1537L37.7766 10.3672ZM45.9419 48.5143L36.5211 36.5963C36.4495 35.9908 36.4137 35.3734 36.4137 34.7441C36.4137 32.5994 36.8665 30.55 37.7721 28.5959C38.6387 26.8193 39.8009 25.279 41.2586 23.9751C41.5069 23.753 41.8841 23.7717 42.1196 24.0073L61.8072 43.6949C62.0423 43.9299 62.0615 44.3061 61.8401 44.554C60.5777 45.9668 59.0606 47.1054 57.2888 47.9697C55.3347 48.9229 53.2615 49.3995 51.0692 49.3995C49.2617 49.3995 47.5527 49.1044 45.9419 48.5143ZM64.2687 24.0284C64.1859 24.1414 64.1399 24.2775 64.1399 24.4176V27.7361C64.1399 28.0925 64.4289 28.3815 64.7854 28.3815H73.9655H75.6498C75.8539 28.3815 76.0193 28.547 76.0193 28.751V36.4248C76.0193 37.0066 76.7284 37.2914 77.1308 36.8713L82.0405 31.7463C82.3107 31.4643 82.7674 31.485 83.0111 31.7902L98.1898 50.8069C98.3122 50.9604 98.4979 51.0498 98.6942 51.0498H110.578C111.115 51.0498 111.417 50.4329 111.088 50.0088L90.5277 23.4885C90.3339 23.2386 90.3497 22.8852 90.5649 22.6536L109.672 2.09164C110.055 1.6787 109.763 1.00681 109.199 1.00681H98.089C97.9119 1.00681 97.7426 1.07954 97.6208 1.20796L76.7634 23.186C76.362 23.609 75.6498 23.3249 75.6498 22.7417V1.65227C75.6498 1.29579 75.3608 1.00681 75.0043 1.00681H64.7854C64.4289 1.00681 64.1399 1.29579 64.1399 1.65227V3.09339C64.1399 3.23246 64.1852 3.36756 64.2669 3.48008C64.6315 3.98219 64.9711 4.50808 65.2852 5.05732C66.8709 7.69736 67.655 10.6165 67.655 13.7321C67.655 16.0334 67.2007 18.2578 66.2994 20.3759C65.7715 21.6854 65.0928 22.9046 64.2687 24.0284ZM75.6553 38.4053C75.6543 38.4034 75.6523 38.402 75.6498 38.402H74.4477H71.4759C71.1602 38.402 70.8919 38.6306 70.8322 38.9406C70.5734 40.2857 70.1875 41.5901 69.6728 42.8495C69.5721 43.0959 69.6259 43.3798 69.8151 43.5671L74.5502 48.2558C74.9577 48.6593 75.6498 48.3706 75.6498 47.7971V38.4205C75.6498 38.4185 75.6506 38.4166 75.6519 38.4151L75.6543 38.4126C75.6564 38.4105 75.6565 38.4076 75.6553 38.4053Z" fill="#F0F0F0"/>
</svg>
