<svg width="54" height="26" viewBox="0 0 54 26" fill="none" xmlns="http://www.w3.org/2000/svg">
<path fill-rule="evenodd" clip-rule="evenodd" d="M31.0637 7.0337C31.0637 7.90486 30.8918 8.74163 30.5479 9.54401C30.2651 10.251 29.8666 10.8869 29.3524 11.4515C29.2369 11.5783 29.0397 11.5778 28.9185 11.4565L28.4635 11.0015C28.3422 10.8803 28.343 10.6843 28.4571 10.5563C28.8562 10.1085 29.1634 9.61062 29.3787 9.06258C29.6538 8.42068 29.7914 7.74438 29.7914 7.0337C29.7914 6.07084 29.5507 5.18822 29.0692 4.38583C28.6107 3.56052 27.9688 2.91861 27.1435 2.46011C26.3411 1.97868 25.4585 1.73796 24.4956 1.73796C23.5557 1.73796 22.6731 1.97868 21.8478 2.46011C21.0454 2.94154 20.4035 3.58345 19.922 4.38583C19.4406 5.18822 19.1999 6.07084 19.1999 7.0337C19.1999 7.74438 19.326 8.42068 19.5782 9.06258C19.8533 9.70449 20.243 10.2776 20.7473 10.782L30.3327 20.3673C30.4764 20.511 30.7173 20.4802 30.8095 20.2991C31.2999 19.3357 31.5451 18.2725 31.5451 17.1094V16.1819C31.5451 16.0104 31.6842 15.8714 31.8556 15.8714H34.7766C34.9481 15.8714 35.0871 16.0104 35.0871 16.1819V16.7989C35.0871 16.9703 34.9481 17.1094 34.7766 17.1094H33.0936C32.9221 17.1094 32.7837 17.2484 32.7782 17.4198C32.7322 18.8612 32.3636 20.1771 31.6726 21.3676C31.5999 21.4928 31.6181 21.652 31.721 21.7539L34.5164 24.5219C34.7134 24.717 34.5752 25.053 34.2979 25.053H33.3588C33.2764 25.053 33.1974 25.0202 33.1392 24.962L31.0267 22.8495C30.8984 22.7212 30.6884 22.7301 30.5657 22.8637C29.8339 23.6597 28.9798 24.2864 28.0032 24.7435C26.9257 25.2478 25.768 25.5 24.53 25.5C23.5098 25.5 22.5379 25.3281 21.6144 24.9842H16.6191C16.5259 24.9842 16.4376 24.9423 16.3786 24.87L8.76214 15.5406L5.53645 18.9078V24.6737C5.53645 24.8452 5.39745 24.9842 5.22598 24.9842H0.310479C0.139008 24.9842 3.15833e-06 24.8452 3.15833e-06 24.6737V1.22312C3.15833e-06 1.05165 0.139008 0.912642 0.310479 0.912642H5.22598C5.39745 0.912642 5.53645 1.05165 5.53645 1.22312V12.1457L16.1049 1.0094C16.1635 0.947623 16.2449 0.912642 16.3301 0.912642H21.6742C21.7817 0.912642 21.8688 0.963475 21.9231 1.03721C22.737 0.679069 23.606 0.5 24.53 0.5C25.7221 0.5 26.8111 0.798028 27.7969 1.39408C28.8056 1.96722 29.5965 2.75814 30.1696 3.76685C30.7657 4.75264 31.0637 5.84159 31.0637 7.0337ZM18.1361 5.48681C18.02 5.98154 17.9619 6.49717 17.9619 7.0337C17.9619 8.39525 18.3173 9.59886 19.028 10.6445C19.1211 10.7815 19.0993 10.9677 18.9756 11.0779C18.1425 11.8198 17.4837 12.707 16.9991 13.7393C16.593 14.6252 16.3504 15.5483 16.2713 16.5085L12.4208 11.6374L18.1361 5.48681ZM22.0637 23.8362L17.5321 18.1035C17.4977 17.8123 17.4805 17.5153 17.4805 17.2125C17.4805 16.1809 17.6983 15.1951 18.1339 14.2552C18.5508 13.4005 19.1098 12.6596 19.8109 12.0325C19.9304 11.9256 20.1118 11.9346 20.2251 12.0479L29.6952 21.518C29.8083 21.6311 29.8175 21.812 29.711 21.9313C29.1038 22.6109 28.374 23.1585 27.5218 23.5743C26.5818 24.0328 25.5846 24.262 24.53 24.262C23.6606 24.262 22.8385 24.1201 22.0637 23.8362ZM30.8792 12.0581C30.8394 12.1124 30.8173 12.1779 30.8173 12.2453V13.8416C30.8173 14.0131 30.9563 14.1521 31.1278 14.1521H35.5435H36.3537C36.4519 14.1521 36.5314 14.2316 36.5314 14.3298V18.0211C36.5314 18.3009 36.8725 18.4379 37.0661 18.2358L39.4278 15.7706C39.5577 15.6349 39.7775 15.6448 39.8946 15.7917L47.1959 24.9391C47.2548 25.0129 47.3441 25.0558 47.4385 25.0558H53.1548C53.413 25.0558 53.5584 24.7591 53.4002 24.5551L43.5102 11.7984C43.4171 11.6782 43.4247 11.5082 43.5282 11.3968L52.7189 1.50613C52.9035 1.3075 52.7626 0.984311 52.4915 0.984311H47.1474C47.0622 0.984311 46.9808 1.01929 46.9222 1.08106L36.8894 11.6529C36.6963 11.8564 36.3537 11.7197 36.3537 11.4392V1.29479C36.3537 1.12332 36.2147 0.984311 36.0433 0.984311H31.1278C30.9563 0.984311 30.8173 1.12332 30.8173 1.29479V1.98812C30.8173 2.05501 30.839 2.12 30.8783 2.17412C31.0537 2.41562 31.217 2.66856 31.3681 2.93273C32.1309 4.20263 32.508 5.60677 32.508 7.10542C32.508 8.21239 32.2895 9.28237 31.856 10.3012C31.6021 10.9311 31.2756 11.5175 30.8792 12.0581ZM36.3559 18.9772C36.3577 18.9753 36.3564 18.9721 36.3537 18.9721H35.7755H34.3459C34.1941 18.9721 34.065 19.0821 34.0364 19.2312C33.9118 19.8782 33.7262 20.5056 33.4786 21.1114C33.4302 21.23 33.4561 21.3665 33.5471 21.4566L35.8248 23.712C36.0208 23.9061 36.3537 23.7673 36.3537 23.4914V18.9809C36.3537 18.98 36.3541 18.9791 36.3548 18.9784L36.3559 18.9772Z" fill="#FEFEFE"/>
</svg>
