<svg width="517" height="242" viewBox="0 0 517 242" fill="none" xmlns="http://www.w3.org/2000/svg">
<path fill-rule="evenodd" clip-rule="evenodd" d="M300.155 63.1324C300.155 71.55 298.494 79.6354 295.171 87.3885C292.439 94.2202 288.588 100.364 283.619 105.82C282.504 107.045 280.598 107.04 279.427 105.868L275.03 101.472C273.859 100.3 273.866 98.4065 274.969 97.1697C278.825 92.843 281.794 88.032 283.874 82.7366C286.532 76.5341 287.861 69.9994 287.861 63.1324C287.861 53.8287 285.535 45.3002 280.883 37.5471C276.453 29.5725 270.251 23.37 262.276 18.9397C254.523 14.2878 245.995 11.9619 236.691 11.9619C227.609 11.9619 219.08 14.2878 211.106 18.9397C203.353 23.5916 197.15 29.794 192.498 37.5471C187.846 45.3002 185.52 53.8287 185.52 63.1324C185.52 69.9994 186.739 76.5341 189.175 82.7366C191.834 88.9391 195.599 94.477 200.473 99.3504L293.092 191.969C294.48 193.358 296.809 193.06 297.699 191.31C302.438 182.002 304.807 171.728 304.807 160.489V151.527C304.807 149.87 306.15 148.527 307.807 148.527H336.032C337.689 148.527 339.032 149.87 339.032 151.527V157.489C339.032 159.146 337.689 160.489 336.032 160.489H319.769C318.112 160.489 316.775 161.833 316.722 163.489C316.277 177.416 312.716 190.131 306.038 201.635C305.336 202.845 305.512 204.383 306.506 205.367L333.517 232.113C335.421 233.999 334.086 237.245 331.406 237.245H322.331C321.536 237.245 320.773 236.929 320.21 236.366L299.798 215.953C298.558 214.714 296.529 214.8 295.343 216.091C288.272 223.783 280.019 229.837 270.583 234.254C260.172 239.128 248.985 241.564 237.023 241.564C227.165 241.564 217.774 239.903 208.851 236.58H160.584C159.683 236.58 158.829 236.175 158.26 235.477L84.6648 145.331L53.4964 177.866V233.58C53.4964 235.237 52.1532 236.58 50.4964 236.58H3C1.34315 236.58 0 235.237 0 233.58V6.9872C0 5.33034 1.34315 3.98719 3 3.98719H50.4964C52.1532 3.98719 53.4964 5.33034 53.4964 6.98719V112.527L155.615 4.92208C156.181 4.3252 156.968 3.98719 157.791 3.98719H209.428C210.467 3.98719 211.309 4.47834 211.834 5.19079C219.698 1.73026 228.094 0 237.023 0C248.542 0 259.064 2.87972 268.589 8.63915C278.336 14.1771 285.978 21.8194 291.516 31.5662C297.276 41.0914 300.155 51.6135 300.155 63.1324ZM175.241 48.1854C174.119 52.9658 173.558 57.9481 173.558 63.1324C173.558 76.2884 176.992 87.9184 183.859 98.0224C184.759 99.3456 184.548 101.145 183.353 102.209C175.303 109.378 168.937 117.951 164.255 127.926C160.331 136.486 157.987 145.405 157.222 154.683L120.017 107.616L175.241 48.1854ZM213.192 225.488L169.405 170.095C169.073 167.281 168.907 164.411 168.907 161.486C168.907 151.518 171.011 141.992 175.22 132.91C179.248 124.652 184.65 117.493 191.425 111.433C192.579 110.401 194.332 110.488 195.427 111.583L286.932 203.088C288.025 204.181 288.114 205.929 287.085 207.081C281.217 213.648 274.166 218.94 265.931 222.957C256.849 227.387 247.213 229.602 237.023 229.602C228.622 229.602 220.678 228.231 213.192 225.488ZM298.373 111.68C297.988 112.205 297.774 112.838 297.774 113.489V128.914C297.774 130.57 299.117 131.914 300.774 131.914H343.442H351.271C352.219 131.914 352.988 132.682 352.988 133.631V169.298C352.988 172.002 356.283 173.326 358.154 171.374L380.974 147.553C382.23 146.242 384.353 146.338 385.485 147.757L456.033 236.144C456.603 236.857 457.466 237.273 458.378 237.273H513.612C516.107 237.273 517.512 234.406 515.983 232.434L420.421 109.171C419.521 108.01 419.594 106.368 420.594 105.291L509.4 9.72176C511.184 7.80247 509.823 4.67963 507.203 4.67963H455.565C454.742 4.67963 453.955 5.01764 453.389 5.61452L356.447 107.766C354.581 109.732 351.271 108.411 351.271 105.7V7.67963C351.271 6.02278 349.927 4.67963 348.271 4.67963H300.774C299.117 4.67963 297.774 6.02278 297.774 7.67963V14.3784C297.774 15.0247 297.984 15.6526 298.364 16.1756C300.059 18.5092 301.637 20.9533 303.097 23.5058C310.467 35.7764 314.111 49.344 314.111 63.8248C314.111 74.521 312 84.8597 307.811 94.7043C305.357 100.791 302.203 106.457 298.373 111.68ZM351.295 178.501C351.29 178.493 351.282 178.488 351.271 178.488H345.684H331.87C330.403 178.488 329.156 179.55 328.879 180.991C327.676 187.243 325.882 193.305 323.49 199.159C323.022 200.304 323.272 201.624 324.151 202.494L346.16 224.287C348.054 226.163 351.271 224.821 351.271 222.155V178.573C351.271 178.564 351.274 178.555 351.281 178.548L351.292 178.537C351.302 178.526 351.302 178.512 351.295 178.501Z" fill="#F0F0F0"/>
</svg>
